HIERARCHY
ROOT Hips
{
  OFFSET 0 0 0
  CHANNELS 6 Xposition Yposition Zposition Zrotation Yrotation Xrotation
  JOINT LeftThigh
  {
    OFFSET 8.409438 0 -5.917753
    CHANNELS 3 Zrotation Yrotation Xrotation
    JOINT LeftLeg
    {
      OFFSET 0 0 -42.358652
      CHANNELS 3 Zrotation Yrotation Xrotation
      JOINT LeftFoot
      {
        OFFSET 0 0 -39.357303
        CHANNELS 3 Zrotation Yrotation Xrotation
      }
    }
  }
  JOINT RightThigh
  {
    OFFSET -8.409438 0 -5.917753
    CHANNELS 3 Zrotation Yrotation Xrotation
    JOINT RightLeg
    {
      OFFSET 0 0 -42.358652
      CHANNELS 3 Zrotation Yrotation Xrotation
      JOINT RightFoot
      {
        OFFSET 0 0 -39.357303
        CHANNELS 3 Zrotation Yrotation Xrotation
      }
    }
  }
  JOINT SpineLow
  {
    OFFSET 0 0 4.719101
    CHANNELS 3 Zrotation Yrotation Xrotation
    JOINT SpineMid
    {
      OFFSET 0 0 12.899191
      CHANNELS 3 Zrotation Yrotation Xrotation
      JOINT Chest
      {
        OFFSET 0 0 12.899191
        CHANNELS 3 Zrotation Yrotation Xrotation
        JOINT LeftShoulder
        {
          OFFSET 7.550562 1.41573 9.438202
          CHANNELS 3 Zrotation Yrotation Xrotation
          JOINT LeftArm
          {
            OFFSET 9.155056 0 4.247191
            CHANNELS 3 Zrotation Yrotation Xrotation
            JOINT LeftForearm
            {
              OFFSET 0 0 25.771955
              CHANNELS 3 Zrotation Yrotation Xrotation
              JOINT LeftHand
              {
                OFFSET 0 0 25.197169
                CHANNELS 3 Zrotation Yrotation Xrotation
              }
            }
          }
        }
        JOINT RightShoulder
        {
          OFFSET -7.550562 1.41573 9.438202
          CHANNELS 3 Zrotation Yrotation Xrotation
          JOINT RightArm
          {
            OFFSET -9.155056 0 4.247191
            CHANNELS 3 Zrotation Yrotation Xrotation
            JOINT RightForearm
            {
              OFFSET 0 0 -25.771955
              CHANNELS 3 Zrotation Yrotation Xrotation
              JOINT RightHand
              {
                OFFSET 0 0 -25.197169
                CHANNELS 3 Zrotation Yrotation Xrotation
              }
            }
          }
        }
        JOINT Neck
        {
          OFFSET 0 0 15.101124
          CHANNELS 3 Zrotation Yrotation Xrotation
          JOINT Head
          {
            OFFSET 0 0 11.325843
            CHANNELS 3 Zrotation Yrotation Xrotation
            End Site
            {
              OFFSET 0 0 14.157303
            }
          }
        }
      }
    }
  }
}
MOTION
Frames: 10
Frame Time: 0.0
0.0  89.887642  0.0  -1.354874  37.650124  -87.628325  21.952986  -50.33495  -24.818901  -5.363881  58.469405  46.35703  6.570189  -3.134157  -1.417386  -28.871233  -3.271233  -51.778584  -5.150687  20.962356  50.522434  8.736402  -1.345031  -1.658247  -1.53298  -1.250799  -0.162698  -4.185262  -3.427655  -0.365493  -4.185261  -3.427655  -0.365493  -4.458701  19.933377  8.007233  118.596017  46.11005  -147.729349  -19.966737  -12.365099  73.405715  72.589833  46.981752  -32.456716  -3.817994  7.081866  21.68579  27.065  55.801058  -5.007355  -22.437281  -10.333038  -84.95414  82.519987  25.041881  -13.9117  -25.758704  4.37562  -0.981659  -19.302636  3.330134  -0.552113  
0.0  89.887642  0.0  -1.639301  37.019485  -87.888791  22.047436  -50.529236  -24.587094  -4.303976  58.21292  47.154929  6.310844  -3.165014  -1.487154  -29.039362  -3.717881  -51.583996  -4.658768  20.109933  50.414513  8.195186  -1.258912  -1.534203  -1.473776  -1.27655  -0.14408  -4.024252  -3.496604  -0.316101  -4.024251  -3.496603  -0.316101  -4.333154  19.79674  8.025836  118.166577  46.018898  -148.177532  -19.858922  -12.6497  73.487634  72.360731  47.165711  -32.424204  -3.842986  6.944653  21.572764  27.023283  55.640238  -5.01523  -22.364963  -10.278471  -84.857719  82.368209  24.977712  -13.927891  -25.607642  4.355036  -1.04481  -19.189074  3.316991  -0.601502  
0.0  89.887642  0.0  -1.759033  36.780437  -87.889063  21.508414  -50.601322  -24.267871  -3.427567  58.074302  47.554594  6.270233  -3.188215  -1.510127  -29.506159  -4.198155  -51.545357  -4.504149  19.897525  50.148824  8.145604  -1.279715  -1.410289  -1.485982  -1.297117  -0.141711  -4.057764  -3.5527  -0.307715  -4.057763  -3.5527  -0.307715  -4.035017  19.689502  8.011488  117.836146  45.925847  -148.438393  -19.865024  -12.801075  73.491227  72.217837  47.230804  -32.426937  -3.477916  6.864805  21.523053  26.759226  55.499748  -5.214243  -22.458869  -10.309873  -84.642934  82.182204  24.907171  -13.960371  -25.434611  4.320822  -1.141815  -19.058894  3.294938  -0.677038  
0.0  89.887642  0.0  -1.893221  36.559874  -87.920151  20.97653  -50.747929  -23.860353  -2.61511  57.934419  47.851712  6.220169  -3.134143  -1.534837  -30.17667  -4.743733  -51.551212  -4.146044  19.613049  50.081242  8.069798  -1.25108  -1.363269  -1.495784  -1.321536  -0.146351  -4.084319  -3.61974  -0.318371  -4.084319  -3.61974  -0.318371  -3.793497  19.650059  8.009551  117.74551  45.760554  -148.532295  -19.833931  -12.698118  73.582037  71.97822  47.318347  -32.743984  -3.65476  6.766276  21.333782  26.40872  55.443753  -5.540608  -22.221913  -10.50276  -84.544844  81.912257  24.930746  -14.267112  -25.322428  4.333026  -1.215776  -18.974212  3.306912  -0.732869  
0.0  89.887642  0.0  -1.896163  36.596845  -87.86767  19.993058  -50.788008  -23.353564  -1.968976  57.883721  47.957471  6.286046  -3.121104  -1.556152  -30.955916  -5.188558  -51.552646  -4.071297  19.729569  49.877786  8.214438  -1.268769  -1.332347  -1.48013  -1.321186  -0.149461  -4.041319  -3.618911  -0.327757  -4.041319  -3.618911  -0.327758  -3.944771  19.583393  7.943056  117.789355  45.579902  -148.504879  -19.773513  -12.588831  73.558284  71.623528  47.26094  -33.131551  -3.731617  6.659712  21.272669  26.081881  55.311087  -5.870162  -22.229696  -10.748303  -84.331311  81.756482  24.974704  -14.416409  -25.454326  4.298561  -1.252453  -19.073049  3.282876  -0.76095  
0.0  89.887642  0.0  -1.847535  36.644417  -87.82939  19.121252  -50.79079  -22.709692  -1.688987  57.856519  47.718026  6.224063  -3.111644  -1.577882  -31.758058  -5.672861  -51.548597  -4.09744  20.069772  49.562118  8.488372  -1.233087  -1.178075  -1.511589  -1.297239  -0.155016  -4.127101  -3.553959  -0.342712  -4.127101  -3.553959  -0.342712  -3.82613  19.476682  7.954168  117.94938  45.405302  -148.407861  -19.66197  -12.278838  73.691847  71.297285  47.355929  -33.798961  -3.905687  6.412994  21.112926  25.766609  55.236607  -6.17001  -22.011459  -11.08251  -84.246829  81.599204  25.03889  -14.762946  -25.451581  4.276869  -1.218916  -19.071356  3.265167  -0.736691  
0.0  89.887642  0.0  -1.718902  36.696271  -87.758694  18.213334  -50.737468  -22.120725  -1.48207  57.909804  47.441732  6.344784  -3.089913  -1.558431  -32.583539  -6.057761  -51.66535  -3.947277  20.295588  49.403415  8.37327  -1.246459  -1.076898  -1.512988  -1.282426  -0.146823  -4.131378  -3.512982  -0.321155  -4.131378  -3.512982  -0.321155  -3.850112  19.508399  7.865227  118.089009  45.266876  -148.343933  -19.789021  -12.151121  73.687327  71.316254  47.355197  -33.893016  -3.883946  6.353509  20.968712  25.508334  55.102686  -6.431375  -22.022854  -11.332211  -84.054799  81.566019  25.093556  -14.867166  -25.560373  4.283479  -1.219302  -19.152867  3.270426  -0.735948  
0.0  89.887642  0.0  -1.537778  36.76184  -87.645194  17.615732  -50.578719  -21.525364  -1.939182  57.960071  46.643945  6.406  -3.050561  -1.55012  -33.389407  -6.441104  -51.92606  -3.77197  20.36147  49.365725  8.322746  -1.192707  -0.884041  -1.56643  -1.24226  -0.153061  -4.277278  -3.40386  -0.337953  -4.277278  -3.40386  -0.337953  -3.577661  19.476537  7.861366  118.299418  45.140254  -148.258673  -19.803579  -11.770329  73.93544  71.393493  47.600925  -34.334626  -3.801046  6.0866  20.810095  25.411656  55.079668  -6.517568  -21.974996  -11.55271  -83.949438  81.587352  25.136179  -15.079089  -25.495087  4.299594  -1.12813  -19.104454  3.278557  -0.667231  
0.0  89.887642  0.0  -1.334785  36.720523  -87.546447  17.306115  -50.37148  -21.203489  -2.017042  57.95964  46.420955  6.461835  -3.056161  -1.548982  -33.938746  -6.614214  -52.125332  -3.6809  20.392633  49.35664  8.136437  -1.159861  -0.689595  -1.557591  -1.204183  -0.155284  -4.253019  -3.299934  -0.346931  -4.253019  -3.299934  -0.346931  -3.577491  19.500903  7.832799  118.578552  45.082788  -148.215506  -19.947167  -11.610975  73.935605  71.510498  47.565629  -34.383709  -3.767825  5.996575  20.722597  25.229872  54.955623  -6.687357  -22.050372  -11.580879  -83.805347  81.616778  25.120084  -15.072788  -25.612345  4.317149  -1.023387  -19.192974  3.287627  -0.586984  
0.0  89.887642  0.0  -1.119667  36.751684  -87.443486  17.42292  -50.155433  -21.069558  -2.964957  58.060708  45.559178  6.578023  -2.944506  -1.511793  -34.431298  -6.729469  -52.291571  -3.670156  20.336782  49.375187  7.977064  -1.084003  -0.565288  -1.61841  -1.166153  -0.191529  -4.417667  -3.198721  -0.445512  -4.417667  -3.198721  -0.445512  -3.326096  19.577811  7.964459  118.764064  45.02808  -147.962311  -20.045147  -11.240131  74.024777  71.4132  47.865557  -35.158318  -3.638547  5.856149  20.753263  24.862746  54.970129  -6.854554  -22.158351  -11.61831  -83.716428  81.449044  25.137132  -15.6151  -25.507655  4.430005  -0.817286  -19.115291  3.363585  -0.42813  
